# xmcd
#
# Track frame offsets: 
#        150
#        9190
#        20330
#        46635
#        60137
#        77772
#        90995
#        113940
#        124425
#        136222
#        158572
#        178080
#        191832
#
# Disc length: 2726 seconds
#
# Revision: 0
# Processed by: cddbd v1.5.1PL0 Copyright (c) Steve Scherf et al.
# Submitted via: ExactAudioCopy v0.95a3
#
DISCID=940aa40d
DTITLE=Людмила Гурченко - Хорошее Настроение
DYEAR=1995
DGENRE=Pop
TTITLE0=Хорошее Настроение
TTITLE1=Песня Из К/Ф "Соломенная Шляпка"
TTITLE2=Я Боюсь Утечки Газа
TTITLE3=В Гостях
TTITLE4=Не Сходите С Ума
TTITLE5=Мария
TTITLE6=Алёнушка
TTITLE7=Песня Из К/Ф "Вокзал На Двоих"
TTITLE8=Осень
TTITLE9=Две Берёзы
TTITLE10=Когда Мы Были Молодыми
TTITLE11=Мужчина Средних Лет
TTITLE12=Пять Минут
EXTD=
EXTT0=
EXTT1=
EXTT2=
EXTT3=
EXTT4=
EXTT5=
EXTT6=
EXTT7=
EXTT8=
EXTT9=
EXTT10=
EXTT11=
EXTT12=
PLAYORDER=
